PathFileType	4	(X/Y/Z)	pose_F01_0-76.trc
DataRate	CameraRate	NumFrames	NumMarkers	Units	OrigDataRate	OrigDataStartFrame	OrigNumFrames
30	30	9	21	m	30	12	76
Frame#	Time	CHip			RHip			RKnee			RAnkle			RBigToe			RSmallToe			RHeel			LHip			LKnee			LAnkle			LBigToe			LSmallToe			LHeel			Neck			Nose			RShoulder			RElbow			RWrist			LShoulder			LElbow			LWrist			
		X1	Y1	Z1	X2	Y2	Z2	X3	Y3	Z3	X4	Y4	Z4	X5	Y5	Z5	X6	Y6	Z6	X7	Y7	Z7	X8	Y8	Z8	X9	Y9	Z9	X10	Y10	Z10	X11	Y11	Z11	X12	Y12	Z12	X13	Y13	Z13	X14	Y14	Z14	X15	Y15	Z15	X16	Y16	Z16	X17	Y17	Z17	X18	Y18	Z18	X19	Y19	Z19	X20	Y20	Z20	X21	Y21	Z21	
12	0.4	-0.2617791330829733	1.8732014870593356	-0.5823419171908417	-0.28184532551387775	1.872117942843675	-0.5220748420834634	-0.2633389104065227	1.7020348459788157	-0.36552992140090423													-0.2403131325425323	1.8768195115665536	-0.6427750471031548	-0.23950930305410412	1.7087442002551088	-0.6200161892754474	-0.2420306208379053	1.5661289069255355	-0.6008301393069926	-0.2503175469648136	1.5179258437094676	-0.6529221571327803	-0.2371374028480241	1.523814439919018	-0.6707724617438141	-0.18412138578234377	1.6087663315614742	-0.5207462805266488	-0.2591736273870483	2.059007139969507	-0.5791950112592693	-0.26942990778012255	2.131188669605998	-0.6357817233634292	-0.28582282463079234	2.05599607913751	-0.4844450460959968	-0.29409269316586706	1.9541660593516397	-0.45298458028884575	-0.30690171450029713	1.869904988483941	-0.464164422029002	-0.2286276304175677	2.06003891385433	-0.6710151533955027	-1.345786032245018	1.8656396511039557	0.477168321256367	-0.2193607935454014	1.8928116560414607	-0.6984776681617512
13	0.43333333333333335	-0.2636851164277665	1.8745409619181237	-0.58021117720085	-0.28074596785497796	1.8737224591380783	-0.5188753760206163	-0.2633389104065227	1.7020348459788157	-0.36552992140090423													-0.24229456893448215	1.878569507087457	-0.6407161041412361	-0.23979437966241882	1.7105577420283211	-0.6197357233838756	-0.2420306208379053	1.5661289069255355	-0.6008301393069926	-0.2534717769338112	1.5148704938234607	-0.6533292673643658	-0.2394563668711413	1.5213723956063325	-0.6679970532951519	-0.18412138578234377	1.6087663315614742	-0.5207462805266488	-0.25833582753025325	2.059954132119427	-0.5767174362458118	-0.26942017790537337	2.1312254110608686	-0.6357457962689925	-0.2877146596025333	2.0558708594396555	-0.4823480858239345	-0.2939671651175804	1.9553574396313333	-0.45295633561513	-0.3056620730656654	1.8723547801590383	-0.4610916921047834	-0.22664271006164802	2.06108777010108	-0.6735031778959012	-1.3358375007341525	1.8640551445925353	0.46057792558054017	-0.22091949767677718	1.8903381322562522	-0.7040923878785468
14	0.4666666666666667	-0.2635294294869075	1.874493615679965	-0.5803829729181914	-0.2827509039080715	1.872543189449477	-0.5167905430709234	-0.2633389104065227	1.7020348459788157	-0.36552992140090423													-0.24224407037873852	1.877430701242657	-0.6408036980378138	-0.2388302721314648	1.714025625563499	-0.6170019589573116	-0.2420306208379053	1.5661289069255355	-0.6008301393069926	-0.2506584010827834	1.516889488186445	-0.6522189363287328	-0.2367964075768268	1.5240830108926087	-0.6665515390608748	-0.18412138578234377	1.6087663315614742	-0.5207462805266488	-0.25841153330312316	2.0586544931755175	-0.5768831039979648	-0.26942526088452545	2.1311285749726263	-0.6357603908776464	-0.2848285912051751	2.0557203912303343	-0.4814125863168221	-0.29390796428845994	1.9554981724782141	-0.4529165087109509	-0.3074270566620448	1.873276278883953	-0.459088725960156	-0.22663639049288886	2.0611574632696854	-0.6735739236474204	-1.3452647387882943	1.8640746618750652	0.4772998084530138	-0.21996705632761746	1.8935569444522613	-0.7007719945986135
15	0.5	-0.2636936870009418	1.8742758307302758	-0.5801984283152043	-0.28270105975489423	1.8731060716139285	-0.5167575557765314	-0.2633389104065227	1.7020348459788157	-0.36552992140090423													-0.24242004065301626	1.8769798684421666	-0.6406143432381383	-0.2385526207030955	1.711733526906449	-0.6170738561753646	-0.2420306208379053	1.5661289069255355	-0.6008301393069926	-0.25192344288841406	1.5150528532273657	-0.654794745402223	-0.2395161303680359	1.5218342418832864	-0.6679711519442717	-0.18412138578234377	1.6087663315614742	-0.5207462805266488	-0.25834280107027613	2.0598214534956365	-0.5766536732816102	-0.2685701442485937	2.1309755675178694	-0.6330218833472798	-0.28671238542355554	2.0556555138533272	-0.47929251073212503	-0.29411783944732256	1.9554865088025617	-0.45328266771001374	-0.304711303395438	1.873222479029197	-0.4581133011340836	-0.22872748627237566	2.0607865577025595	-0.6714227380988707	-1.3552895761233408	1.8645824620507445	0.4929573558386868	-0.21994484503969955	1.895506149260686	-0.7011645780493965
16	0.5333333333333333	-0.2637010888005998	1.8741215434192091	-0.5801779549849316	-0.28260507515978767	1.8718020247844327	-0.5166293812015292	-0.2633389104065227	1.7020348459788157	-0.36552992140090423													-0.2424401301544215	1.876610864332976	-0.640485500926808	-0.2365294721623627	1.7093251323427778	-0.6189861101525521	-0.2420306208379053	1.5661289069255355	-0.6008301393069926	-0.25073188327994583	1.5168522630465957	-0.652250886286133	-0.23865978624138703	1.5225028516698047	-0.6648295003142947	-0.18412138578234377	1.6087663315614742	-0.5207462805266488	-0.2582571960421471	2.058741427614697	-0.5762207141199992	-0.2685442123964582	2.1310372480226207	-0.6330175675722218	-0.2848114765901162	2.055826879642922	-0.48135304409932717	-0.2939449173521982	1.9569052305036385	-0.4532265025372952	-0.3075006710439686	1.8751786663306051	-0.45935076845855216	-0.22657604969676434	2.0599120001918	-0.673091497029407	-1.3612945470953237	1.8637497643572463	0.5039288818567159	-0.21929156828992047	1.8906891696341956	-0.6976221918070056
17	0.5666666666666667	-0.263672661157709	1.8745217984636633	-0.5801960288306068	-0.28167209161484896	1.8734501030791046	-0.5136372238381404	-0.2633389104065227	1.7020348459788157	-0.36552992140090423													-0.24227852379753048	1.8785918195230886	-0.6407256994136012	-0.2386578764560185	1.7096892474591872	-0.6168227119257257	-0.2420306208379053	1.5661289069255355	-0.6008301393069926	-0.250253060103835	1.5176015545589698	-0.6528197454545803	-0.23643264120946703	1.5252263558048949	-0.6671845315811225	-0.18412138578234377	1.6087663315614742	-0.5207462805266488	-0.25930296943799813	2.0578685394885476	-0.5793050084744845	-0.268528091013448	2.1310126625608645	-0.6329955406120422	-0.28772526579100943	2.055875181946886	-0.4822454655447372	-0.2942031403265294	1.952868159061977	-0.4528072842021911	-0.3047205686116699	1.8731191168298458	-0.4580301985172813	-0.22738497566962146	2.0607276413613613	-0.6760829995433487	-1.3274678252950525	1.863605527885556	0.44790889503500614	-0.21971550486400643	1.8932805918827353	-0.6984165895577227
18	0.6	-0.26354555067762536	1.8751723918963923	-0.5803509029685628	-0.2827316909646585	1.8729701971043284	-0.5168006051497236	-0.2633389104065227	1.7020348459788157	-0.36552992140090423													-0.24228959610526588	1.8780651573700229	-0.6407111171360169	-0.23664877590572647	1.7134304467146497	-0.6192072558331307	-0.2420306208379053	1.5661289069255355	-0.6008301393069926	-0.2515739028292494	1.517970211110288	-0.6474358264558048	-0.2379955837208436	1.5238375969477898	-0.6611609444878371	-0.18412138578234377	1.6087663315614742	-0.5207462805266488	-0.25826651697110165	2.058752581660892	-0.5763104919589509	-0.26851199120358854	2.131152623931519	-0.632988575918919	-0.2848154297797219	2.0557046316844487	-0.4813898956462394	-0.2938549647036334	1.9559265571893096	-0.4527653373286705	-0.30469244919589916	1.8734351443546307	-0.45797035804253183	-0.22656857272293562	2.0616260129693593	-0.6735977080490013	-1.3525915781058624	1.8646179630437105	0.4902339713068135	-0.2192951686457417	1.8996901192723123	-0.6985032008784725
19	0.6333333333333333	-0.26381151080277676	1.8755735426447866	-0.5803644239198333	-0.2828453348317941	1.8742080630200249	-0.5169758375371121	-0.2633389104065227	1.7020348459788157	-0.36552992140090423													-0.24254240772235747	1.8781302430123847	-0.6407178694544571	-0.23664178368136393	1.713628663414435	-0.6192300253905418	-0.2420306208379053	1.5661289069255355	-0.6008301393069926	-0.2507329862756605	1.5168971117277172	-0.6521547076139252	-0.23900721502930827	1.524259004797392	-0.6644304378053376	-0.18412138578234377	1.6087663315614742	-0.5207462805266488	-0.25830880972812365	2.0600157006931945	-0.5767477050005387	-0.2685130148024611	2.1310817553335117	-0.6329960009771118	-0.2858276171390277	2.0559537146694398	-0.4843435988924465	-0.2939570425634133	1.9566650916473667	-0.4531538849654958	-0.30473990400468937	1.881376464276218	-0.45074063846178386	-0.22657717665120553	2.0614543953431266	-0.6735586434345195	-1.3348504120989546	1.864231894909525	0.46089366805989695	-0.21954002563387304	1.8996016321438072	-0.698923783633575
20	0.6666666666666666	-0.2635027026687529	1.8753245107750667	-0.5803408503651848	-0.2825006956179497	1.8742290548578928	-0.5169484667886981	-0.2633389104065227	1.7020348459788157	-0.36552992140090423													-0.24226926230984924	1.877999434984204	-0.64066163510272	-0.23964772423946118	1.7100821708808667	-0.6198474567831616	-0.2420306208379053	1.5661289069255355	-0.6008301393069926	-0.2506001701961995	1.5163478564125417	-0.652140341296992	-0.23864621607952002	1.5253881777456217	-0.6650186705274278	-0.18412138578234377	1.6087663315614742	-0.5207462805266488	-0.2583268224693239	2.0597429092459056	-0.5767157209284427	-0.2685622849622418	2.1301520306588673	-0.6331804702108367	-0.2848221821396246	2.0556791886011805	-0.4813814206320938	-0.2939430548344532	1.9565944954314378	-0.45316312320506935	-0.3036224620901189	1.8778490418135887	-0.4554083442790157	-0.22666318396254068	2.060943762413724	-0.673522390871284	-1.32736224087105	1.8659452145667286	0.4466286117907285	-0.22017869702984982	1.8964147010630166	-0.7016065528397025
